<svg xmlns="http://www.w3.org/2000/svg" xmlns:xlink="http://www.w3.org/1999/xlink" width="1em" height="1em" preserveAspectRatio="xMidYMid meet" viewBox="0 0 256 256" style="-ms-transform: rotate(360deg); -webkit-transform: rotate(360deg); transform: rotate(360deg);"><path fill="#fff" d="M29.6 123.2a4.3 4.3 0 0 0 2.4.8a4.2 4.2 0 0 0 3.2-1.6a56 56 0 0 1 89.6 0h.1l.3.3l.3.3a.1.1 0 0 0 .1.1l.3.2h.1l.6.3h.1l.7.2h1.5l.8-.3h.2l.5-.3h.1l.2-.2l.4-.4h.1a56 56 0 0 1 89.6 0a4 4 0 1 0 6.4-4.8A63 63 0 0 0 194.7 95a36 36 0 1 0-37.4 0a63.1 63.1 0 0 0-29.3 18.7a63.1 63.1 0 0 0-29.3-18.9a36 36 0 1 0-37.4 0a63 63 0 0 0-32.5 22.8a4 4 0 0 0 .8 5.6ZM148 64a28 28 0 1 1 28 28a28.1 28.1 0 0 1-28-28Zm-96 0a28 28 0 1 1 28 28a28.1 28.1 0 0 1-28-28Zm142.7 134.8a36 36 0 1 0-37.4 0a63.1 63.1 0 0 0-29.3 18.9a63.1 63.1 0 0 0-29.3-18.9a36 36 0 1 0-37.4 0a63 63 0 0 0-32.5 22.8a4 4 0 0 0 .8 5.6a4.3 4.3 0 0 0 2.4.8a4.2 4.2 0 0 0 3.2-1.6a56 56 0 0 1 89.6 0h.1l.3.3l.3.3h.1l.3.2h.1l.7.3l.7.2h1.5l.8-.3h.2l.5-.3h.1l.2-.2l.4-.4h.1a56 56 0 0 1 89.6 0a4 4 0 0 0 6.4-4.8a63 63 0 0 0-32.5-22.9ZM52 168a28 28 0 1 1 28 28a28.1 28.1 0 0 1-28-28Zm96 0a28 28 0 1 1 28 28a28.1 28.1 0 0 1-28-28Z"/></svg>